<?xml version="1.0" ?><!DOCTYPE svg  PUBLIC '-//W3C//DTD SVG 1.1//EN'  'http://www.w3.org/Graphics/SVG/1.1/DTD/svg11.dtd'><svg id="Layer_1" style="enable-background:new 0 0 300 300;" version="1.1" viewBox="0 0 300 300" xml:space="preserve" xmlns="http://www.w3.org/2000/svg" xmlns:xlink="http://www.w3.org/1999/xlink"><style type="text/css">
	.st0{fill:#faa61a;}
</style><g><g><path class="st0" d="M235.8,166.3c0-0.7-0.3-1.4-0.9-1.8s-1.3-0.6-2-0.4l-6.2,1.8l-6.2-1.8c-0.4-0.1-0.9-0.1-1.3,0l-3.8,1.3V76     c0-6.4-5.1-11.6-11.6-12.3c-0.2,0-0.3-0.1-0.5-0.1h-0.8h-4.1h-79.9c-7.2,0-13,5.8-13,13V98H77.2c-7.2,0-13,5.8-13,13     c0,0.7,0.3,1.3,0.9,1.8c0.4,0.3,0.9,0.5,1.4,0.5c0.2,0,0.3,0,0.5-0.1l8-1.9l8,1.9c0.3,0.1,0.7,0.1,1,0l1.3-0.3L85,225     c0,0.4,0.1,0.7,0.3,1c1.1,5.3,5.5,9.3,10.7,10.1c0.3,0.1,0.5,0.2,0.8,0.2H98h83.7h0.9c0.2,0,0.5,0,0.7-0.1     c5.5-0.7,10.1-4.9,11.1-10.5c0.2-0.3,0.2-0.6,0.2-1v-45.4h28.2C230,179.3,235.8,173.5,235.8,166.3z M219.9,168.7l6.2,1.8     c0.4,0.1,0.8,0.1,1.3,0l3.4-1c-1.3,3.1-4.3,5.3-7.9,5.3c-3.5,0-5.8-2.1-6.9-4.8L219.9,168.7z M83.4,108.7l-8-1.9     c-0.3-0.1-0.7-0.1-1,0l-5.2,1.2c1.2-3.2,4.3-5.5,8-5.5h30.5h44.5c-1.4,1.6-2.4,3.6-2.9,5.7l-6-1.4c-0.3-0.1-0.7-0.1-1,0l-8,1.9     l-8-1.9c-0.2,0-0.3-0.1-0.5-0.1s-0.3,0-0.5,0.1l-8,1.9l-8-1.9c-0.3-0.1-0.7-0.1-1,0l-8,1.9l-8-1.9c-0.3-0.1-0.7-0.1-1,0     L83.4,108.7z M98,231.8c-4.1,0-7.7-3.1-8.4-7.2c0-0.1-0.1-0.3-0.1-0.4l0.2-112.4l2.1-0.5l8,1.9c0.3,0.1,0.7,0.1,1,0l8-1.9l8,1.9     c0.3,0.1,0.7,0.1,1,0l8-1.9l8,1.9c0.3,0.1,0.7,0.1,1,0l8-1.9l8,1.9c0.7,0.2,1.4,0,1.9-0.4s0.9-1.1,0.9-1.8c0-4.5,3.6-8.3,8.1-8.5     c4.5,0.2,8.1,3.6,8.1,7.8v113c0,3.2,1.2,6.2,3.2,8.5H98z M190.1,224.1c0,0.1-0.1,0.2-0.1,0.4c-0.5,4.1-4,7.2-8.1,7.4     c-4.4-0.3-7.9-4-7.9-8.5v-113c0-6.4-5.1-11.6-11.6-12.3c-0.2,0-0.3-0.1-0.5-0.1h-0.8H157h-47.2V76.7c0-4.7,3.8-8.5,8.5-8.5h75     c-2,2.3-3.2,5.2-3.2,8.5v100.4V224.1z M194.6,174.8V76.7c0-4.5,3.6-8.3,8.1-8.5c4.5,0.2,8.1,3.6,8.1,7.8v90.3     c0,3.3,1,6.2,2.8,8.5H194.6z"/><path class="st0" d="M137.3,168.8H131V153h7.6c1.8,0,3.2,1.5,3.2,3.2h4.5c0-4.3-3.5-7.7-7.7-7.7H131v-9.4h-4.5v9.4h-6.3     c-5.5,0-10.1,4.5-10.1,10.1v4.7c0,5.5,4.5,10.1,10.1,10.1h6.3v15.9l-6.5,0c-2.5,0-4.6-2.1-4.6-4.7h-4.5c0,5.1,4.1,9.2,9.1,9.2     l6.5,0v10h4.5v-10l6.3,0c5.5,0,10.1-4.5,10.1-10.1v-4.7C147.3,173.3,142.8,168.8,137.3,168.8z M120.2,168.8     c-3.1,0-5.6-2.5-5.6-5.6v-4.7c0-3.1,2.5-5.6,5.6-5.6h6.3v15.8H120.2z M142.8,183.6c0,3.1-2.5,5.6-5.6,5.6l-6.3,0v-15.9h6.3     c3.1,0,5.6,2.5,5.6,5.6V183.6z"/></g></g></svg>
