<?xml version="1.0" ?><!DOCTYPE svg  PUBLIC '-//W3C//DTD SVG 1.1//EN'  'http://www.w3.org/Graphics/SVG/1.1/DTD/svg11.dtd'><svg id="Layer_1" style="enable-background:new 0 0 300 300;" version="1.1" viewBox="0 0 300 300" xml:space="preserve" xmlns="http://www.w3.org/2000/svg" xmlns:xlink="http://www.w3.org/1999/xlink"><style type="text/css">
	.st0{fill:#faa61a;}
</style><g><g><path class="st0" d="M83.4,173.6c6.9,0,12.6-5.7,12.6-12.6c0-3.2-1.2-6-3.1-8.3c0.1,0,0.1-0.1,0.2-0.1l25.1-20.6     c2.3,2.2,5.3,3.5,8.7,3.5c4.4,0,8.3-2.3,10.6-5.8l20.2,10.2c-0.3,1.1-0.5,2.3-0.5,3.5c0,6.9,5.7,12.6,12.6,12.6     c6.9,0,12.6-5.7,12.6-12.6c0-3.3-1.3-6.3-3.4-8.6l30-40.5c1.5,0.6,3.2,1,4.9,1c6.9,0,12.6-5.7,12.6-12.6     c0-6.9-5.7-12.6-12.6-12.6c-6.9,0-12.6,5.7-12.6,12.6c0,3.6,1.5,6.8,3.9,9.1l-29.9,40.3c-1.7-0.8-3.6-1.3-5.6-1.3     c-4.1,0-7.8,2-10.1,5l-20.5-10.4c0.2-0.9,0.3-1.7,0.3-2.6c0-6.9-5.7-12.6-12.6-12.6c-6.9,0-12.6,5.7-12.6,12.6     c0,1.9,0.5,3.8,1.2,5.4l-25.3,20.8c-0.3,0.2-0.5,0.6-0.7,0.9c-1.8-1-3.9-1.6-6.2-1.6c-6.9,0-12.6,5.7-12.6,12.6     C70.8,167.9,76.4,173.6,83.4,173.6z M213.9,74.7c4.5,0,8.1,3.6,8.1,8.1c0,4.5-3.6,8.1-8.1,8.1c-0.7,0-1.4-0.1-2.1-0.3     c-1.5-0.4-2.8-1.2-3.9-2.3c-1.3-1.4-2.1-3.3-2.1-5.4C205.8,78.3,209.4,74.7,213.9,74.7z M163.9,138c1.5-1.6,3.6-2.6,5.9-2.6     c1,0,1.9,0.2,2.8,0.5c1.4,0.5,2.7,1.5,3.6,2.7c1,1.4,1.7,3,1.7,4.9c0,4.5-3.6,8.1-8.1,8.1c-4.5,0-8.1-3.6-8.1-8.1     c0-0.5,0.1-1,0.1-1.4C162.1,140.5,162.8,139.1,163.9,138z M118.8,122.9c0-4.5,3.6-8.1,8.1-8.1c4.5,0,8.1,3.6,8.1,8.1     c0,0.2,0,0.3,0,0.5c-0.1,1.6-0.6,3.1-1.5,4.3c-1.5,2-3.8,3.3-6.5,3.3c-2,0-3.8-0.7-5.2-1.9c-1.2-1-2-2.3-2.5-3.8     C119,124.5,118.8,123.7,118.8,122.9z M83.4,152.9c4.5,0,8.1,3.6,8.1,8.1c0,4.5-3.6,8.1-8.1,8.1s-8.1-3.6-8.1-8.1     C75.3,156.5,78.9,152.9,83.4,152.9z"/><path class="st0" d="M98.1,187.7h-27c-1.2,0-2.2,1-2.2,2.2v37.6c0,1.2,1,2.2,2.2,2.2h27c1.2,0,2.2-1,2.2-2.2v-37.6     C100.4,188.7,99.4,187.7,98.1,187.7z M95.9,225.3H73.4v-33.1h22.5V225.3z"/><path class="st0" d="M187.5,227.5v-48.2c0-1.2-1-2.2-2.2-2.2h-27c-1.2,0-2.2,1-2.2,2.2v48.2c0,1.2,1,2.2,2.2,2.2h27     C186.5,229.8,187.5,228.8,187.5,227.5z M183,225.3h-22.5v-43.7H183V225.3z"/><path class="st0" d="M141.7,157.5h-27c-1.2,0-2.2,1-2.2,2.2v67.8c0,1.2,1,2.2,2.2,2.2h27c1.2,0,2.2-1,2.2-2.2v-67.8     C144,158.5,143,157.5,141.7,157.5z M139.5,225.3H117V162h22.5V225.3z"/><path class="st0" d="M201.9,121.9c-1.2,0-2.2,1-2.2,2.2v103.4c0,1.2,1,2.2,2.2,2.2h27c1.2,0,2.2-1,2.2-2.2V124.2     c0-1.2-1-2.2-2.2-2.2H201.9z M226.6,225.3h-22.5v-98.9h22.5V225.3z"/></g></g></svg>
