<?xml version="1.0" encoding="UTF-8"?>
<svg width="90px" height="90px" viewBox="0 0 90 90" version="1.1" xmlns="http://www.w3.org/2000/svg" xmlns:xlink="http://www.w3.org/1999/xlink">
    <!-- Generator: Sketch 46.2 (44496) - http://www.bohemiancoding.com/sketch -->
    <title>Rectangle</title>
    <desc>Created with Sketch.</desc>
    <defs></defs>
    <g id="Page-1" stroke="none" stroke-width="1" fill="none" fill-rule="evenodd">
        <g id="Human-Capital-Impact" transform="translate(14.000000, 19.000000)" fill-rule="nonzero" fill="#faa61a">
            <g id="Layer_3" transform="translate(10.400000, 0.975000)">
                <path d="M6.76586105,5.73172209 C6.77931749,5.72499387 6.78755001,5.72081331 6.79201907,5.71864308 L6.76586105,5.73172209 Z M20.02,0 C25.5947377,0 30.9269422,1.8410869 35.3497052,5.18476245 C36.5503057,6.15191281 37.6858632,7.22017804 38.7229016,8.35757499 L37.5220984,9.45242501 C36.541051,8.37643758 35.4661327,7.36521808 34.3500537,6.46565809 C30.2252973,3.34773197 25.2358755,1.625 20.02,1.625 C15.250143,1.625 10.7135674,3.04318351 6.86090479,5.67583627 L6.81528323,5.707011 C6.7274579,5.76878157 6.6857404,5.79857679 6.63460116,5.82782413 C6.18837101,6.14047626 5.98576636,6.28789189 5.73132675,6.49134868 C4.54882599,7.41107149 3.49559077,8.38570707 2.59174326,9.41006758 L1.37325674,8.33493242 C2.34710062,7.23124269 3.47429198,6.18817009 4.72493527,5.21554409 C5.01363333,4.98458565 5.24009821,4.82039861 5.74156185,4.46937406 L5.79059986,4.43504745 C5.88489182,4.36945614 5.92724334,4.33929521 5.98097967,4.30900736 C10.0943234,1.50892433 14.9363244,0 20.02,0 Z" id="Shape"></path>
                <path d="M11.6527252,48.7882474 C11.7147232,48.8156721 11.7671056,48.8318786 11.8386504,48.8502278 C14.4890123,49.7572085 17.2123298,50.2125 20.02,50.2125 C25.6271693,50.2125 30.9280546,48.3819161 35.2706369,45.038817 C36.2075978,44.3361766 37.0855929,43.5594887 37.8961272,42.7151821 L38.022912,42.5831146 L38.052711,42.4937176 C38.4906443,42.0530038 38.8329638,41.659109 39.5591798,40.7876498 C39.6525631,40.678823 39.7479231,40.5590933 39.8585617,40.4132515 C39.9180625,40.3348187 40.1192353,40.064353 40.1375,40.04 L38.8375,39.065 C38.8151397,39.0948137 38.617875,39.3600251 38.5639383,39.4311235 C38.4713209,39.5532101 38.3951712,39.6488202 38.318104,39.738732 C37.5955057,40.6057275 37.2754713,40.9729802 36.8654757,41.3829757 C36.8118002,41.4366513 36.7736032,41.4783208 36.725,41.543125 C36.6916185,41.5876336 36.6608008,41.6344319 36.6329964,41.68386 C35.9088853,42.4282818 35.1271586,43.115256 34.2875,43.745 C30.2189317,46.8770707 25.2659823,48.5875 20.02,48.5875 C17.4062269,48.5875 14.8741774,48.1665931 12.4581463,47.3449367 C12.3975616,47.3184421 12.3456628,47.3025166 12.27505,47.2844392 C10.9515611,46.8212181 9.7639247,46.2856173 8.62355448,45.6383802 C8.53635094,45.5831472 8.49836524,45.5594402 8.44518537,45.5318803 C7.48085354,44.9845294 6.58191703,44.3899438 5.76382675,43.7536513 C4.23455862,42.5748308 2.85651873,41.2205502 1.67703723,39.7306789 C1.4516614,39.4489421 1.21200702,39.1242491 0.958125935,38.7615618 L-0.373125935,39.6934382 C-0.100913268,40.0823134 0.158338604,40.4335579 0.405544092,40.7425647 C1.66550392,42.33411 3.13842443,43.7816353 4.76896236,45.0385083 C5.65280351,45.72595 6.62258504,46.3668491 7.65942729,46.954393 C7.74615896,47.0093594 7.78414828,47.0330682 7.83734303,47.0606344 C9.0472139,47.7460497 10.3059652,48.3144702 11.6527252,48.7882474 Z" id="Shape"></path>
            </g>
            <g id="Layer_1_1_" transform="translate(0.000000, 8.775000)">
                <path d="M27.17,23.7575 L18.85,20.865 L18.85,19.305 C19.4025,18.85 20.4425,17.9075 20.6375,16.8675 C20.7025,16.4125 20.8,16.055 20.8975,15.6975 C21.385,15.6975 21.8725,15.3725 22.3275,14.7875 C22.9125,14.04 23.1725,13 22.9775,12.09 C22.88,11.505 22.5875,11.05 22.23,10.8225 C22.165,10.79 22.0675,10.7575 22.0025,10.725 C22.035,10.66 22.035,10.5625 22.0675,10.4975 C22.165,9.9775 22.2625,9.1325 22.2625,9.1 C22.2625,9.0675 22.2625,9.0675 22.2625,9.035 C22.2625,3.575 19.2725,0.0325 14.625,0.0325 C9.9775,0.0325 6.9875,3.575 6.9875,9.035 C6.9875,9.1325 7.02,10.0425 7.1825,10.66 C7.1825,10.66 7.1825,10.66 7.1825,10.6925 C7.085,10.725 7.02,10.7575 6.9225,10.8225 C6.5325,11.05 6.2725,11.505 6.175,12.09 C6.0125,13.0325 6.24,14.04 6.825,14.7875 C7.28,15.3725 7.735,15.665 8.19,15.6975 C8.19,15.7625 8.2225,15.795 8.2225,15.86 C8.2875,16.12 8.385,16.38 8.4825,16.7375 C8.6125,17.29 9.23,18.7525 10.1075,19.4025 L10.1075,20.8975 L2.1125,23.7575 C0.9425,24.2125 0.195,25.3175 0.195,26.5525 L0.195,31.59 C0.195,31.98 0.52,32.305 0.91,32.305 L28.405,32.305 C28.6,32.305 28.795,32.24 28.925,32.0775 C29.055,31.915 29.1525,31.7525 29.1525,31.5575 L29.1525,26.5525 C29.1525,25.35 28.34,24.2125 27.17,23.7575 Z M9.8475,16.38 C9.75,16.0225 9.6525,15.6975 9.5875,15.4375 C9.4575,15.015 9.36,14.7225 9.3275,14.365 C9.295,13.975 8.97,13.65 8.58,13.6825 C8.32,13.6825 8.125,13.8125 7.995,14.0075 C7.9625,13.975 7.9625,13.9425 7.93,13.9425 C7.41,13.2925 7.475,12.48 7.605,12.155 L7.605,12.155 C7.8325,12.415 8.19,12.48 8.515,12.3175 C8.8075,12.155 8.97,11.7975 8.8725,11.4725 C8.8725,11.4725 8.645,10.725 8.515,10.27 C8.4175,9.88 8.385,9.23 8.3525,9.0025 C8.3525,5.525 9.9775,1.4625 14.5275,1.4625 C19.0775,1.4625 20.7025,5.4925 20.7025,8.97 C20.7025,9.035 20.67,9.165 20.67,9.295 L20.54,8.775 C20.3125,7.93 19.4025,6.3375 17.615,6.24 C17.68,6.0775 17.81,5.85 17.94,5.655 C18.2,5.33 18.135,4.875 17.81,4.6475 C17.3225,4.2575 16.315,4.225 14.3975,6.1425 C11.8625,8.6775 10.4,8.32 10.335,8.2875 C9.9775,8.1575 9.555,8.32 9.3925,8.6775 C9.23,9.035 9.425,9.49 9.7825,9.62 C10.01,9.7175 12.09,10.465 15.4375,7.15 C15.665,6.9225 15.8925,6.695 16.0875,6.565 C16.0875,6.7275 16.12,6.89 16.2175,7.02 C16.3475,7.28 16.6725,7.7025 17.485,7.7025 C18.72,7.7025 19.1425,9.1 19.1425,9.165 L19.3375,9.88 C19.435,10.205 19.7275,10.4 20.0525,10.4 C20.1175,10.4 20.1825,10.4 20.2475,10.3675 C20.3775,10.335 20.475,10.27 20.5725,10.1725 C20.475,10.6275 20.28,11.245 20.28,11.245 C20.15,11.6025 20.2475,12.025 20.5725,12.1875 C20.8975,12.35 21.2225,12.3175 21.4175,12.025 C21.58,12.285 21.6775,13.1625 21.125,13.845 C21.06,13.91 21.0275,13.975 20.995,14.0075 C20.8975,13.8775 20.735,13.8125 20.5725,13.78 C20.215,13.715 19.8575,13.9425 19.76,14.3 C19.7275,14.4625 19.6625,14.625 19.63,14.7875 C19.4675,15.3075 19.305,15.8275 19.175,16.5425 C19.0775,17.0625 18.2325,17.875 17.68,18.2975 C17.485,18.4275 17.3875,18.655 17.3875,18.8825 L17.3875,21.32 C17.3875,21.645 17.5825,21.905 17.875,22.0025 L18.6875,22.295 C18.33,23.53 16.7375,24.7325 14.69,24.7325 C12.545,24.7325 10.92,23.465 10.66,22.1975 L11.0825,22.035 C11.375,21.9375 11.57,21.645 11.57,21.3525 L11.57,18.915 C11.57,18.59 11.3425,18.2975 11.0175,18.2 C10.725,18.1675 10.0425,17.1275 9.8475,16.38 Z M27.69,30.875 L1.6575,30.875 L1.6575,26.585 C1.6575,25.935 2.0475,25.3825 2.6325,25.155 L9.2625,22.7825 C9.815,24.7325 12.09,26.2925 14.69,26.2925 C17.225,26.2925 19.5,24.7975 20.085,22.88 L26.715,25.155 C27.3325,25.3825 27.7225,25.9675 27.7225,26.6175 L27.7225,30.875 L27.69,30.875 L27.69,30.875 Z" id="Shape"></path>
                <path d="M33.0525,32.37 L60.19,32.37 C60.4175,32.37 60.645,32.24 60.775,32.0775 C60.905,31.8825 60.9375,31.6225 60.8725,31.4275 L59.02,26.065 C59.02,26.0325 58.9875,26.0325 58.9875,26 C58.3375,24.6025 57.265,23.4325 55.965,22.6525 L54.6975,7.67 C54.1775,3.055 50.895,0.0975 46.345,0.0975 C42.0225,0.0975 38.415,3.3475 37.9925,7.7025 L36.92,22.4575 C35.62,23.2375 34.645,24.44 33.8975,26.2275 C33.8975,26.26 33.865,26.26 33.865,26.2925 L32.3375,31.46 C32.2725,31.6875 32.305,31.915 32.4675,32.11 C32.5975,32.24 32.825,32.37 33.0525,32.37 Z M39.4225,7.8 C39.78,4.225 42.77,1.5275 46.3125,1.5275 C50.1475,1.5275 52.78,3.9325 53.2025,7.7675 L54.405,21.905 L50.31,20.3125 L49.9525,20.1175 L49.9525,18.395 C50.505,18.005 50.96,17.4525 51.2525,16.8025 L52.065,15.0475 C52.5525,13.975 52.7475,12.7725 52.6175,11.6025 L52.2925,8.775 C52.26,8.4175 51.935,8.125 51.5775,8.125 L48.165,8.125 L46.41,6.7275 C46.1825,6.565 45.89,6.5325 45.6625,6.63 C45.4025,6.7275 45.24,6.9875 45.24,7.2475 L45.2075,8.0925 L41.275,8.0925 C40.9175,8.0925 40.5925,8.385 40.56,8.7425 L40.235,11.57 C40.105,12.74 40.3,13.9425 40.7875,15.015 L41.6,16.77 C41.8925,17.3875 42.315,17.9075 42.8675,18.33 L42.8675,19.9875 L38.415,21.71 L39.4225,7.8 Z M44.33,17.9725 C44.33,17.7125 44.2,17.485 43.9725,17.355 C43.5175,17.095 43.16,16.6725 42.9325,16.2175 L42.12,14.4625 C41.73,13.6175 41.5675,12.7075 41.6975,11.7975 L41.925,9.62 L45.9225,9.62 C46.3125,9.62 46.6375,9.3275 46.6375,8.9375 L46.6375,8.8075 L47.4825,9.49 C47.6125,9.5875 47.775,9.6525 47.9375,9.6525 L50.96,9.6525 L51.1875,11.83 C51.285,12.74 51.1225,13.65 50.765,14.495 L49.9525,16.25 C49.6925,16.8025 49.27,17.225 48.75,17.485 L47.06,18.1025 C46.67,18.2325 46.475,18.655 46.6375,19.045 C46.7675,19.435 47.19,19.63 47.58,19.4675 L48.5225,19.11 L48.5225,20.5725 C48.5225,20.8325 48.685,21.0925 48.9125,21.2225 L49.6925,21.645 C49.725,21.645 49.7575,21.6775 49.7575,21.6775 L53.0725,22.9775 C51.87,25.3825 49.4325,26.9425 46.7025,26.9425 C43.875,26.9425 41.34,25.285 40.2025,22.685 L43.875,21.2875 C44.1675,21.19 44.3625,20.8975 44.33,20.605 L44.33,17.9725 Z M35.2625,26.715 C35.9125,25.155 36.6925,24.18 37.83,23.595 C37.9275,23.5625 37.9925,23.53 38.0575,23.4975 L38.87,23.1725 C40.2025,26.325 43.29,28.3725 46.735,28.3725 C50.05,28.3725 53.04,26.455 54.47,23.4975 L54.7625,23.6275 L54.7625,23.6275 C54.86,23.725 54.99,23.79 55.12,23.8225 C56.225,24.44 57.1025,25.415 57.655,26.5525 L59.15,30.9075 L33.995,30.9075 L35.2625,26.715 Z" id="Shape"></path>
            </g>
        </g>
    </g>
</svg>
