<?xml version="1.0" encoding="UTF-8"?>
<svg width="90px" height="90px" viewBox="0 0 90 90" version="1.1" xmlns="http://www.w3.org/2000/svg" xmlns:xlink="http://www.w3.org/1999/xlink">
    <!-- Generator: Sketch 46.2 (44496) - http://www.bohemiancoding.com/sketch -->
    <title>Rectangle</title>
    <desc>Created with Sketch.</desc>
    <defs></defs>
    <g id="Page-1" stroke="none" stroke-width="1" fill="none" fill-rule="evenodd">
        <g id="Key-Tech_2" transform="translate(25.000000, 19.000000)" fill-rule="nonzero" fill="#F5A31B">
            <path d="M17.5190476,11.452381 C17.5190476,12.7988095 18.5095238,13.7738095 19.8714286,13.7738095 C21.2178571,13.7738095 22.1928571,12.7678571 22.177381,11.4214286 C22.1619048,10.0440476 21.202381,9.1 19.825,9.11547619 C18.4630952,9.11547619 17.5190476,10.0904762 17.5190476,11.452381" id="Shape"></path>
            <path d="M36.6630952,38.9690476 C37.375,38.9535714 37.9940476,38.3345238 38.0095238,37.6380952 C38.025,36.8952381 37.3595238,36.2607143 36.6011905,36.2916667 C35.8428571,36.322619 35.3166667,36.8797619 35.3321429,37.6535714 C35.3321429,38.3809524 35.9511905,38.9845238 36.6630952,38.9690476 M3.01785714,38.9690476 C3.7297619,38.9845238 4.34880952,38.3809524 4.36428571,37.6690476 C4.3797619,36.8952381 3.86904762,36.322619 3.11071429,36.2916667 C2.35238095,36.2607143 1.67142857,36.8952381 1.68690476,37.622619 C1.70238095,38.3345238 2.30595238,38.9535714 3.01785714,38.9690476 M19.825,26.1083333 L19.825,26 C17.6892857,26 15.5535714,26 13.4333333,26 C10.0904762,26.0154762 9.14642857,27.6714286 10.8178571,30.5809524 C12.9380952,34.2642857 15.0738095,37.9630952 17.1940476,41.6464286 C18.9119048,44.6333333 20.7845238,44.6333333 22.502381,41.677381 C23.7095238,39.5880952 24.9321429,37.4988095 26.1238095,35.4095238 C27.2071429,33.5059524 28.3678571,31.6333333 29.3428571,29.6833333 C30.302381,27.7488095 29.575,26.325 27.4392857,26.1702381 C24.9166667,25.9535714 22.3630952,26.1083333 19.825,26.1083333 M30.2559524,25.6440476 C31.6488095,27.4238095 31.4166667,29.1880952 30.4416667,30.8904762 C28.1357143,34.9452381 25.8142857,39 23.4309524,43.0238095 C22.2702381,44.9892857 20.4904762,45.7940476 18.8190476,45.2369048 C17.5190476,44.8035714 16.6678571,43.8130952 16.002381,42.652381 C14.6559524,40.3154762 13.3095238,37.9785714 11.9630952,35.6261905 C11.0190476,33.9702381 10.0440476,32.3297619 9.14642857,30.6583333 C8.24880952,29.002381 8.14047619,27.3309524 9.36309524,25.752381 C6.6702381,25.3964286 3.99285714,27.8107143 3.82261905,30.7666667 C3.76071429,31.9428571 3.76071429,33.1190476 3.80714286,34.2952381 C3.82261905,34.5583333 4.08571429,34.8833333 4.31785714,35.022619 C5.55595238,35.7654762 6.175,37.05 5.81904762,38.3190476 C5.47857143,39.5571429 4.36428571,40.4547619 3.0952381,40.4702381 C1.76428571,40.5011905 0.572619048,39.5880952 0.232142857,38.2571429 C-0.0928571429,37.0345238 0.510714286,35.8119048 1.71785714,35.0380952 C1.98095238,34.8678571 2.21309524,34.4345238 2.22857143,34.1095238 C2.30595238,32.8095238 2.15119048,31.4785714 2.33690476,30.1940476 C2.87857143,26.4797619 5.61785714,24.1119048 9.45595238,24.0809524 C16.3583333,24.0345238 23.2761905,24.0190476 30.1940476,24.0809524 C34.4964286,24.1119048 37.3904762,27.1142857 37.4214286,31.4011905 C37.4214286,31.9738095 37.452381,32.5464286 37.4214286,33.1190476 C37.375,34.0785714 37.3595238,34.8678571 38.4738095,35.4559524 C39.5261905,35.997619 39.7738095,37.4678571 39.3404762,38.597619 C38.8761905,39.8047619 37.6845238,40.5630952 36.4154762,40.4702381 C35.1928571,40.377381 34.125,39.4488095 33.8464286,38.2571429 C33.5678571,37.0964286 34.047619,35.75 35.1309524,35.2238095 C35.8428571,34.8678571 35.9666667,34.4190476 35.9202381,33.7380952 C35.8738095,32.9488095 35.9202381,32.1440476 35.9047619,31.3547619 C35.8583333,28.027381 33.7845238,25.8761905 30.2559524,25.6440476" id="Shape"></path>
            <path d="M19.8559524,52 C18.2,52 16.9619048,50.777381 16.977381,49.1369048 C16.9928571,47.6047619 18.2928571,46.2892857 19.825,46.2738095 C21.3416667,46.2583333 22.6880952,47.5738095 22.7035714,49.1059524 C22.7345238,50.7309524 21.5119048,51.9845238 19.8559524,52" id="Shape"></path>
            <path d="M19.8404762,22.8583333 C16.822619,22.8583333 13.8202381,22.8583333 10.8178571,22.8428571 C7.08809524,22.827381 4.14761905,19.8714286 4.13214286,16.0952381 C4.11666667,13.9595238 4.13214286,12.1488095 4.13214286,10.2297619 C4.13214286,9.23928571 4.13214286,8.20238095 4.13214286,7.10357143 C4.16309524,2.89404762 6.9797619,0.0619047619 11.1738095,0.030952381 C12.9071429,0.0154761905 14.5940476,0.030952381 16.3892857,0.030952381 C17.2869048,0.030952381 18.1845238,0.030952381 19.097619,0.030952381 L20.5678571,0.030952381 C20.7535714,0.030952381 20.9392857,0.030952381 21.125,0.030952381 C21.4809524,0.030952381 21.8214286,0.030952381 22.177381,0.030952381 C22.9511905,0.0464285714 23.7559524,0.0464285714 24.5297619,0.0464285714 C26.2630952,0.0464285714 28.0583333,0.0464285714 29.822619,0.201190476 C32.9952381,0.479761905 35.502381,3.31190476 35.5178571,6.62380952 C35.5488095,10.0595238 35.5488095,12.7369048 35.5178571,16.1880952 C35.502381,19.902381 32.5619048,22.827381 28.8321429,22.8428571 C25.8607143,22.8428571 22.8583333,22.8583333 19.8404762,22.8583333 Z M13.7892857,1.56309524 C12.922619,1.56309524 12.0559524,1.56309524 11.1892857,1.56309524 C7.86190476,1.59404762 5.6952381,3.76071429 5.6952381,7.07261905 C5.6952381,8.18690476 5.6952381,9.20833333 5.6952381,10.1988095 C5.6952381,12.1178571 5.6952381,13.9285714 5.6952381,16.0642857 C5.71071429,19.0202381 7.92380952,21.2488095 10.8333333,21.2642857 C16.822619,21.2952381 22.8738095,21.2952381 28.847619,21.2642857 C31.7261905,21.2488095 33.9702381,19.0047619 33.9857143,16.1571429 C34.0166667,12.7214286 34.0166667,10.0440476 33.9857143,6.62380952 C33.9702381,4.08571429 32.097619,1.93452381 29.6988095,1.73333333 C27.9964286,1.57857143 26.247619,1.57857143 24.5297619,1.57857143 C23.7404762,1.57857143 22.9357143,1.57857143 22.1309524,1.56309524 C21.8059524,1.54761905 21.4809524,1.56309524 21.1404762,1.56309524 C20.9547619,1.56309524 20.7690476,1.56309524 20.5678571,1.56309524 L19.097619,1.56309524 C18.1845238,1.56309524 17.2714286,1.56309524 16.3892857,1.56309524 C15.5071429,1.57857143 14.6404762,1.56309524 13.7892857,1.56309524 Z" id="Shape"></path>
        </g>
    </g>
</svg>