<?xml version="1.0" encoding="UTF-8"?>
<svg width="90px" height="90px" viewBox="0 0 90 90" version="1.1" xmlns="http://www.w3.org/2000/svg" xmlns:xlink="http://www.w3.org/1999/xlink">
    <!-- Generator: Sketch 46.2 (44496) - http://www.bohemiancoding.com/sketch -->
    <title>Rectangle</title>
    <desc>Created with Sketch.</desc>
    <defs></defs>
    <g id="Page-1" stroke="none" stroke-width="1" fill="none" fill-rule="evenodd">
        <g id="Location" transform="translate(19.000000, 19.000000)" fill-rule="nonzero" fill="#faa61a">
            <path d="M24.4053333,12.792 C25.48,10.6773333 25.48,10.6426667 25.5146667,10.608 C25.5493333,10.504 26.4853333,8.32 26.4853333,8.32 C26.624,8.008 26.5546667,7.66133333 26.2773333,7.41866667 L24.9946667,6.27466667 C24.856,6.136 24.6826667,6.06666667 24.5093333,6.06666667 C23.7466667,6.032 22.8453333,5.99733333 22.672,5.99733333 C22.568,5.96266667 22.36,5.928 18.6506667,5.99733333 C18.3733333,5.99733333 18.1306667,6.136 17.992,6.37866667 C17.8533333,6.62133333 17.8533333,6.93333333 17.992,7.14133333 L19.1013333,9.048 L19.2746667,10.3306667 L17.5066667,14.5946667 C17.4026667,14.8373333 17.4373333,15.1146667 17.576,15.3226667 L18.2693333,16.3626667 C18.408,16.5706667 18.6506667,16.7093333 18.8933333,16.7093333 C18.8933333,16.7093333 18.8933333,16.7093333 18.928,16.7093333 C19.1706667,16.7093333 19.4133333,16.6053333 19.552,16.3973333 L21.84,13.3813333 L23.7813333,13.1733333 C24.024,13.208 24.2666667,13.0346667 24.4053333,12.792 Z M21.3546667,11.9253333 C21.1466667,11.96 20.9386667,12.064 20.8,12.2373333 L19.448,14.0053333 L20.8,10.7813333 C20.8693333,10.6426667 20.8693333,10.504 20.8693333,10.4 L20.6613333,8.77066667 C20.6613333,8.66666667 20.6266667,8.56266667 20.5573333,8.45866667 L20.0373333,7.592 C21.216,7.592 22.2213333,7.592 22.4293333,7.592 C22.672,7.62666667 23.2613333,7.66133333 24.1973333,7.696 L24.8213333,8.28533333 C24.544,8.944 24.0586667,10.0186667 24.0586667,10.0533333 C24.024,10.1573333 23.5733333,11.0586667 23.192,11.7866667 L21.3546667,11.9253333 Z" id="XMLID_3567_"></path>
            <path d="M44.5813333,43.9573333 C46.8,41.6693333 48.568,39 49.8506667,36.0533333 C49.8853333,36.0186667 49.8853333,35.9493333 49.92,35.9146667 L49.92,35.88 C50.4053333,34.736 50.7866667,33.5573333 51.0986667,32.344 C51.0986667,32.3093333 51.0986667,32.2746667 51.1333333,32.24 C51.6533333,30.2293333 51.896,28.1146667 51.896,25.9653333 C51.896,11.6826667 40.2826667,0.0693333333 26,0.0693333333 C20.6266667,0.0693333333 15.6346667,1.69866667 11.4746667,4.54133333 C11.4053333,4.576 11.336,4.64533333 11.2666667,4.68 C4.50666667,9.36 0.104,17.16 0.104,25.9653333 C0.104,26.7626667 0.138666667,27.5253333 0.208,28.288 C0.173333333,28.392 0.208,28.496 0.242666667,28.6 C1.10933333,37.128 6.136,44.4426667 13.2426667,48.4986667 C13.312,48.5333333 13.3466667,48.568 13.416,48.6026667 C14.6986667,49.3306667 16.016,49.92 17.4026667,50.4053333 C17.472,50.44 17.5413333,50.44 17.6106667,50.4746667 C20.2453333,51.376 23.0533333,51.8613333 26,51.8613333 C33.2106667,51.8613333 39.728,48.9146667 44.4426667,44.1306667 C44.4773333,44.0613333 44.5466667,43.992 44.5813333,43.9573333 Z M26,50.2666667 C23.296,50.2666667 20.696,49.816 18.2346667,48.984 L16.12,46.1066667 L16.328,44.9973333 L17.368,44.512 C17.6106667,44.408 17.784,44.2 17.8186667,43.9226667 L18.2346667,41.3573333 L19.1013333,39.3813333 C19.1706667,39.1733333 19.2053333,38.9653333 19.1013333,38.792 C19.032,38.584 18.8586667,38.4453333 18.6853333,38.376 L14.5253333,36.6773333 L14.6986667,36.088 C14.8026667,35.776 14.664,35.3946667 14.3866667,35.2213333 L8.87466667,31.5466667 C8.66666667,31.408 8.424,31.3733333 8.18133333,31.4426667 L7.488,31.6853333 L7.28,29.952 C7.28,29.8826667 7.24533333,29.8133333 7.21066667,29.744 L5.58133333,25.792 L8.18133333,25.8613333 C8.35466667,25.8613333 8.528,25.8266667 8.66666667,25.7226667 L13.4506667,22.1866667 C13.5893333,22.0826667 13.6933333,21.944 13.728,21.7706667 L13.9013333,21.0773333 L15.6693333,19.8293333 C15.8773333,19.6906667 15.9813333,19.4826667 16.016,19.24 L16.224,14.7333333 C16.224,14.456 16.0853333,14.1786667 15.8426667,14.0053333 C15.6,13.832 15.288,13.8666667 15.0453333,14.0053333 L13.7626667,14.8373333 C13.728,14.8373333 13.728,14.872 13.6933333,14.872 L11.752,16.3626667 L11.8213333,15.7733333 L11.8906667,14.04 L16.8133333,10.7466667 C17.0906667,10.5733333 17.1946667,10.2613333 17.16,9.94933333 L17.056,9.42933333 L16.9866667,8.528 C16.952,8.28533333 16.848,8.07733333 16.64,7.93866667 C16.432,7.8 16.1893333,7.76533333 15.9813333,7.83466667 L15.1493333,8.07733333 L15.2533333,7.31466667 L15.6,5.65066667 C15.6346667,5.44266667 15.6,5.2 15.4613333,5.02666667 C15.3226667,4.85333333 15.1493333,4.71466667 14.9066667,4.71466667 L14.1093333,4.61066667 C17.6106667,2.63466667 21.6666667,1.49066667 26,1.49066667 C29.7786667,1.49066667 33.384,2.35733333 36.5733333,3.91733333 C36.4693333,4.056 36.4,4.19466667 36.3653333,4.40266667 C36.3306667,4.81866667 36.2613333,5.26933333 36.192,5.54666667 C35.9146667,5.512 35.4293333,5.408 35.0133333,5.304 C34.7706667,5.23466667 34.528,5.26933333 34.3546667,5.408 C34.1466667,5.54666667 34.0426667,5.75466667 34.008,5.99733333 C33.8693333,8.35466667 33.904,8.70133333 34.424,8.944 C34.5626667,9.01333333 34.736,9.048 34.9093333,9.01333333 C35.0826667,9.048 35.3946667,9.11733333 35.7413333,9.22133333 L35.672,9.256 L34.632,9.36 C34.2853333,9.39466667 33.9733333,9.672 33.9386667,10.0533333 L33.696,12.2373333 L33.696,11.44 C33.696,11.0933333 33.4533333,10.7813333 33.1066667,10.6773333 L31.0613333,10.1226667 C30.68,10.0186667 30.2293333,10.2266667 30.1253333,10.6426667 L28.912,14.352 L28.392,14.4906667 C27.976,14.5946667 27.7333333,15.0453333 27.872,15.4613333 L28.5653333,17.8533333 C28.6346667,18.096 28.808,18.2693333 29.016,18.3733333 C29.224,18.4773333 29.4666667,18.4426667 29.6746667,18.3386667 L30.68,17.8186667 L31.4426667,18.2346667 L30.264,18.6506667 C30.2293333,18.6506667 30.16,18.6853333 30.1253333,18.72 L26.832,20.6266667 C26.7973333,20.6613333 26.7626667,20.6613333 26.728,20.696 L25.4106667,21.84 C25.2026667,22.0133333 25.1333333,22.256 25.1333333,22.4986667 L25.3413333,24.6826667 C25.376,24.9253333 25.5146667,25.168 25.7226667,25.272 C25.9306667,25.4106667 26.208,25.4106667 26.416,25.3066667 L29.6746667,23.8853333 C29.8826667,23.7813333 30.1253333,23.6773333 30.3333333,23.608 C30.6106667,23.9546667 31.2,24.544 32.3786667,25.6186667 C32.6213333,25.8613333 33.0026667,25.896 33.3146667,25.688 L34.944,24.6826667 L35.4293333,25.376 C35.6026667,25.6186667 35.88,25.7573333 36.1573333,25.7226667 L37.3013333,25.584 L37.3013333,25.688 L34.632,25.9306667 C34.424,25.9306667 34.2506667,26.0346667 34.112,26.1733333 L33.6266667,26.6933333 L31.72,26.0693333 L31.7546667,25.5146667 C31.7546667,25.272 31.6506667,24.9946667 31.4426667,24.856 C31.2346667,24.7173333 30.9573333,24.648 30.7146667,24.752 L27.352,25.896 C27.248,25.9306667 27.1786667,25.9653333 27.1093333,26.0346667 L26.2773333,26.728 L25.168,27.56 C25.1333333,27.5946667 25.0986667,27.6293333 25.064,27.664 L23.1573333,29.6746667 C23.0186667,29.8133333 22.9493333,30.0213333 22.9493333,30.2293333 L22.9493333,33.6266667 C22.9493333,33.8 23.0186667,33.9733333 23.1226667,34.112 L25.3066667,36.7813333 C25.48,37.024 25.792,37.128 26.104,37.0586667 L29.64,36.192 L30.784,36.4693333 L30.784,39.0346667 C30.784,39.312 30.9226667,39.5546667 31.1653333,39.6933333 L32.3786667,40.4213333 L31.408,45.4133333 C31.3733333,45.656 31.4426667,45.8986667 31.616,46.1066667 C31.7546667,46.28 31.9626667,46.3493333 32.1706667,46.3493333 C32.2053333,46.3493333 32.24,46.3493333 32.2746667,46.3493333 L34.4586667,46.072 C34.632,46.0373333 34.8053333,45.968 34.944,45.8293333 C36.296,44.3733333 38.48,41.9813333 38.7226667,41.7386667 C38.8266667,41.6693333 39,41.4613333 39.728,40.4213333 C39.7973333,40.3173333 39.8666667,40.1786667 39.8666667,40.0053333 C39.9013333,39.3813333 39.9706667,38.6186667 40.0053333,38.3066667 C40.2133333,38.0293333 40.9066667,37.232 41.392,36.6426667 C42.848,34.9093333 42.9173333,34.8053333 42.9866667,34.6666667 C43.056,34.4933333 43.16,34.2506667 42.9173333,32.656 C42.8826667,32.344 42.64,32.1013333 42.3626667,32.032 L39.5893333,31.2346667 L40.144,30.5413333 L42.9173333,31.4426667 C43.264,31.5466667 43.6453333,31.408 43.8186667,31.096 C44.8933333,29.224 44.9626667,28.808 44.616,28.3573333 C44.512,28.2186667 44.3386667,28.1146667 44.1306667,28.08 C43.888,27.9066667 43.368,27.3866667 42.848,26.7973333 L45.1706667,27.2826667 C45.4133333,27.9066667 45.552,28.288 45.7253333,28.5306667 C45.8293333,28.8426667 46.1066667,29.6746667 46.3493333,30.368 L46.5573333,31.0613333 C46.6266667,31.2693333 46.696,31.4773333 46.7653333,31.6506667 C46.7653333,31.6506667 46.7653333,31.6506667 46.7653333,31.6853333 L46.7653333,31.6853333 C46.904,31.9973333 47.0426667,32.24 47.2853333,32.3093333 C47.2853333,32.3093333 47.2853333,32.3093333 47.2506667,32.3093333 C47.1813333,32.3093333 47.112,32.2746667 47.0426667,32.2746667 C46.9386667,32.2053333 46.8346667,32.136 46.7306667,32.1013333 C46.2106667,31.9626667 46.072,32.1013333 44.408,33.7653333 C43.9573333,34.216 43.368,34.8053333 43.264,34.8746667 C42.5706667,35.256 41.8426667,37.5786667 41.8426667,37.5786667 C41.7733333,37.7866667 41.0453333,39.5546667 40.5946667,40.664 C40.4906667,40.9066667 40.5253333,41.2186667 40.6986667,41.4266667 C40.872,41.6346667 41.1146667,41.7733333 41.392,41.7386667 L42.744,41.6 C42.8826667,41.6 42.9866667,41.5306667 43.0906667,41.4613333 C43.1946667,41.392 43.2986667,41.3226667 43.4373333,41.2186667 C43.368,41.808 43.264,42.4666667 43.1253333,43.1253333 C38.8266667,47.528 32.7253333,50.2666667 26,50.2666667 Z M14.2826667,47.2853333 L11.1973333,40.5253333 C11.1626667,40.4213333 11.0586667,40.3173333 10.9893333,40.248 L8.632,38.376 C8.28533333,37.3013333 7.93866667,36.088 7.86933333,35.776 C7.904,35.36 8.112,33.9386667 8.112,33.9386667 C8.14666667,33.7653333 8.112,33.592 8.008,33.4533333 L7.86933333,33.2106667 L8.32,33.0373333 L13.0346667,36.192 L12.8266667,36.8853333 C12.7226667,37.2666667 12.896,37.6826667 13.2773333,37.8213333 L17.3333333,39.4853333 L16.744,40.8373333 C16.7093333,40.9066667 16.7093333,40.976 16.6746667,41.0453333 L16.328,43.2986667 L15.288,43.784 C15.0453333,43.888 14.9066667,44.096 14.8373333,44.3386667 L14.5253333,46.176 C14.4906667,46.384 14.5253333,46.592 14.664,46.7653333 L15.496,47.9093333 C15.1146667,47.7013333 14.6986667,47.4933333 14.2826667,47.2853333 Z M1.976,29.9173333 C2.288,30.0906667 2.63466667,30.2986667 2.94666667,30.5066667 C3.88266667,31.0613333 4.81866667,31.5813333 5.2,31.7893333 L6.51733333,34.008 C6.448,34.4933333 6.30933333,35.5333333 6.30933333,35.7066667 C6.30933333,35.88 6.27466667,36.088 7.21066667,39.0693333 C7.24533333,39.208 7.34933333,39.3466667 7.45333333,39.4506667 L9.84533333,41.3573333 L11.856,45.76 C6.72533333,42.0506667 3.05066667,36.4346667 1.976,29.9173333 Z M12.0293333,5.99733333 L13.8666667,6.24 L13.6933333,7.10666667 C13.6933333,7.14133333 13.6933333,7.14133333 13.6933333,7.176 L13.4506667,9.152 C13.416,9.42933333 13.52,9.672 13.728,9.84533333 C13.936,10.0186667 14.2133333,10.088 14.456,9.984 L15.5306667,9.672 C15.5306667,9.70666667 15.5306667,9.70666667 15.5306667,9.74133333 L15.5306667,9.776 L10.712,13 C10.504,13.1386667 10.3653333,13.3813333 10.3653333,13.624 L10.2613333,15.704 L10.0186667,18.0266667 C9.984,18.3386667 10.1573333,18.6506667 10.4,18.7893333 C10.6773333,18.928 11.024,18.928 11.2666667,18.72 L14.5946667,16.1546667 L14.456,18.7893333 L12.7573333,19.968 C12.6186667,20.072 12.48,20.2453333 12.4453333,20.4186667 L12.272,21.112 L8.008,24.2666667 L5.58133333,24.1973333 L4.472,24.128 C4.19466667,24.128 3.952,24.232 3.77866667,24.44 C3.60533333,24.648 3.60533333,24.9253333 3.70933333,25.2026667 L5.75466667,30.1946667 L5.75466667,30.2986667 C4.09066667,29.328 2.32266667,28.3226667 1.69866667,27.9066667 C1.62933333,27.248 1.59466667,26.5893333 1.59466667,25.896 C1.664,17.7146667 5.75466667,10.4 12.0293333,5.99733333 Z M49.9893333,30.056 L49.8506667,29.8133333 C49.7466667,29.64 49.5386667,29.5013333 49.3306667,29.4666667 C49.1226667,29.432 48.9146667,29.4666667 48.7413333,29.6053333 C48.464,29.8133333 48.2213333,29.9866667 48.0133333,30.1253333 C47.9786667,29.9866667 47.944,29.8826667 47.944,29.8826667 C47.4586667,28.392 47.2853333,27.768 47.0773333,27.4906667 C46.9733333,27.248 46.7653333,26.728 46.6266667,26.312 C46.5226667,26.0693333 46.3146667,25.8613333 46.0373333,25.8266667 L42.848,25.168 C42.6746667,25.1333333 42.5013333,25.168 42.328,25.2373333 L41.288,25.792 C41.08,25.896 40.9413333,26.104 40.872,26.3466667 C40.8373333,26.5893333 40.9066667,26.832 41.0453333,27.0053333 C42.0506667,28.184 42.7093333,28.8426667 43.16,29.224 C43.0906667,29.3973333 42.9866667,29.5706667 42.8826667,29.744 L40.1786667,28.8773333 C39.8666667,28.7733333 39.52,28.8773333 39.312,29.1546667 L37.7173333,31.2 C37.544,31.408 37.5093333,31.6853333 37.5786667,31.928 C37.648,32.1706667 37.856,32.3786667 38.0986667,32.448 L41.496,33.4533333 C41.5306667,33.7306667 41.5653333,33.9733333 41.5653333,34.1466667 C41.3226667,34.4586667 40.6986667,35.1866667 40.248,35.7066667 C38.7573333,37.4746667 38.688,37.5786667 38.6186667,37.752 C38.584,37.856 38.48,38.064 38.376,39.7626667 C38.0986667,40.144 37.7866667,40.56 37.7173333,40.6293333 C37.5786667,40.768 37.024,41.3573333 34.008,44.6506667 L33.176,44.7546667 L34.0426667,40.3173333 C34.112,40.0053333 33.9733333,39.6586667 33.696,39.4853333 L32.3786667,38.688 L32.3786667,35.9493333 C32.3786667,35.6026667 32.136,35.2906667 31.7893333,35.1866667 L29.8826667,34.7013333 C29.744,34.6666667 29.64,34.6666667 29.5013333,34.7013333 L26.2773333,35.4986667 L24.5786667,33.4186667 L24.5786667,30.6106667 L26.208,28.8773333 L27.3173333,28.0453333 L28.0453333,27.4213333 L30.1946667,26.6933333 L30.1946667,26.6933333 C30.1946667,27.04 30.4026667,27.352 30.7146667,27.456 L33.6613333,28.4266667 C33.9386667,28.5306667 34.2853333,28.4266667 34.4933333,28.2186667 L35.1173333,27.5253333 L38.1333333,27.248 C38.5146667,27.2133333 38.8266667,26.9013333 38.8613333,26.52 L38.9653333,24.7866667 C38.9653333,24.544 38.896,24.336 38.7226667,24.1626667 C38.5493333,23.9893333 38.3413333,23.92 38.0986667,23.9546667 L36.504,24.1626667 L35.88,23.2266667 C35.6373333,22.88 35.1866667,22.776 34.84,23.0186667 L33.072,24.128 C32.4133333,23.504 31.72,22.8453333 31.5813333,22.6373333 C31.4773333,22.4293333 31.304,22.256 31.096,22.152 C30.9226667,22.0826667 30.4373333,21.8746667 29.12,22.568 L26.9013333,23.5386667 L26.832,22.8106667 L27.8026667,21.9786667 L30.9573333,20.1413333 L33.3146667,19.3093333 C33.5573333,19.2053333 33.7653333,18.9973333 33.8346667,18.72 C33.904,18.4426667 33.8,18.1653333 33.592,17.992 L32.656,17.16 C32.6213333,17.1253333 32.552,17.0906667 32.5173333,17.056 L31.1653333,16.2933333 C30.9226667,16.1546667 30.6453333,16.1546667 30.4026667,16.2933333 L29.848,16.5706667 L29.64,15.8426667 L29.8133333,15.808 C30.056,15.7386667 30.264,15.5306667 30.3333333,15.288 L31.4426667,11.8906667 L32.1706667,12.0986667 L32.1706667,12.8613333 C32.1706667,13.0346667 32.2053333,13.1733333 32.3093333,13.312 L33.4533333,14.9413333 C33.6266667,15.184 33.9386667,15.3226667 34.2506667,15.2533333 C34.5626667,15.184 34.8053333,14.976 34.8746667,14.664 L35.256,12.9306667 C35.256,12.896 35.256,12.896 35.256,12.8613333 L35.464,10.9546667 L36.088,10.8853333 C36.2266667,10.8853333 36.3653333,10.816 36.4693333,10.712 L37.8906667,9.60266667 C38.1333333,9.42933333 38.2373333,9.152 38.168,8.84 C38.1333333,8.56266667 37.9253333,8.32 37.648,8.25066667 C36.6426667,7.904 35.984,7.73066667 35.4986667,7.62666667 C35.4986667,7.488 35.4986667,7.31466667 35.4986667,7.14133333 C36.6773333,7.34933333 37.024,7.072 37.1626667,6.968 C37.5786667,6.656 37.8213333,5.89333333 37.8906667,4.74933333 C45.2746667,8.944 50.3013333,16.8826667 50.3013333,25.9653333 C50.336,27.352 50.232,28.704 49.9893333,30.056 Z M49.0533333,33.7653333 C48.568,33.0373333 48.048,32.4133333 47.8053333,32.344 C47.7013333,32.3093333 47.5973333,32.2746667 47.4933333,32.2746667 C47.5973333,32.2746667 47.7013333,32.2746667 47.8053333,32.24 C48.0133333,32.1706667 48.1866667,32.032 48.2906667,31.8586667 C48.3946667,31.7546667 48.672,31.5466667 48.984,31.3386667 L49.5386667,32.24 C49.3653333,32.76 49.2266667,33.28 49.0533333,33.7653333 Z M44.824,38.8613333 C44.512,38.7226667 44.1306667,38.792 43.888,39.0346667 C43.784,39.1386667 43.2293333,39.52 42.7093333,39.9013333 C43.0906667,38.9306667 43.4373333,38.0986667 43.472,37.9946667 C43.576,37.648 44.0613333,36.4346667 44.2693333,36.1226667 C44.4773333,35.984 44.7893333,35.672 45.656,34.84 C46.0026667,34.4933333 46.4533333,34.0426667 46.7653333,33.7653333 C46.904,33.8 47.0426667,33.8346667 47.1466667,33.8346667 L47.1813333,33.8346667 C47.4586667,34.216 48.1173333,35.1866667 48.36,35.672 C47.528,37.5786667 46.4533333,39.3466667 45.2053333,40.976 C45.3786667,39.1733333 45.2053333,39.0693333 44.824,38.8613333 Z" id="XMLID_3570_"></path>
            <path d="M38.376,20.2453333 C38.168,20.2106667 37.9253333,20.2453333 37.7173333,20.384 C37.5093333,20.488 36.816,20.696 36.2613333,20.8346667 C35.88,20.9386667 35.6373333,21.2853333 35.672,21.6666667 L35.776,22.8453333 C35.8106667,23.192 36.0533333,23.4693333 36.4,23.5386667 L39.104,24.0586667 C39.1386667,24.0586667 39.208,24.0586667 39.2426667,24.0586667 C39.4853333,24.0586667 39.6933333,23.9546667 39.832,23.7813333 C40.0053333,23.5733333 40.0746667,23.2613333 39.9706667,23.0186667 C39,20.384 38.7573333,20.3146667 38.376,20.2453333 Z M37.3706667,22.1173333 C37.5786667,22.048 37.7173333,22.0133333 37.856,21.9786667 C37.8906667,22.048 37.9253333,22.152 37.9946667,22.256 L37.3706667,22.1173333 Z" id="XMLID_3579_"></path>
            <path d="M41.6346667,18.72 L39.6586667,19.448 C39.4506667,19.5173333 39.2773333,19.6906667 39.208,19.8986667 C39.1386667,20.1066667 39.1386667,20.3493333 39.2426667,20.5226667 L40.8373333,23.5386667 C40.976,23.7813333 41.2186667,23.9546667 41.496,23.9546667 L44.4773333,24.024 C44.4773333,24.024 44.4773333,24.024 44.512,24.024 C44.7893333,24.024 45.0666667,23.8853333 45.2053333,23.608 C45.344,23.3653333 45.344,23.0533333 45.1706667,22.8106667 L42.6053333,18.9626667 C42.3626667,18.72 41.9813333,18.5813333 41.6346667,18.72 Z M42.016,22.4293333 L41.0453333,20.592 L41.6,20.384 L42.9866667,22.464 L42.016,22.4293333 Z" id="XMLID_3583_"></path>
        </g>
    </g>
</svg>
