<?xml version="1.0" ?><!DOCTYPE svg  PUBLIC '-//W3C//DTD SVG 1.0//EN'  'http://www.w3.org/TR/2001/REC-SVG-20010904/DTD/svg10.dtd'><svg style="enable-background:new 0 0 300 300;" version="1.0" viewBox="0 0 300 300" xml:space="preserve" xmlns="http://www.w3.org/2000/svg" xmlns:xlink="http://www.w3.org/1999/xlink"><style type="text/css">
	.st0{fill:#faa61a;}
</style><g><g id="Layer_1"/><g id="Layer_2"><g id="XMLID_1_"><g id="XMLID_2_"><path class="st0" d="M216.8,182.3v-18.3h-64.4v-12.3c3.9-0.2,7.7-0.9,11.4-2.2c0,0,0,0,0,0       c3.8-1.3,7.5-3.1,10.8-5.4c0,0,0,0,0,0c11.8-8.1,18.8-21.5,18.8-35.8c0-24-19.5-43.5-43.5-43.5s-43.5,19.5-43.5,43.5       c0,14.3,7,27.7,18.8,35.8c3.3,2.3,6.9,4.1,10.7,5.4c0,0,0,0,0,0c3.7,1.3,7.6,2,11.6,2.2v12.3H83.2v18.3       c-13.5,1.2-24.1,12.6-24.1,26.4c0,8.7,4.3,16.9,11.5,21.8c0,0,0,0,0,0c4.5,3.1,9.7,4.7,15.1,4.7c5.4,0,10.6-1.6,15.1-4.7       c0,0,0,0,0,0c7.2-5,11.5-13.1,11.5-21.8c0-13.8-10.6-25.2-24.1-26.4v-13.5h59.6v13.5c-13.5,1.2-24.1,12.6-24.1,26.4       c0,8.7,4.3,16.9,11.5,21.8c0,0,0,0,0,0c4.5,3.1,9.7,4.7,15.1,4.7s10.6-1.6,15.1-4.7c0,0,0,0,0,0c7.2-5,11.5-13.1,11.5-21.8       c0-13.8-10.6-25.2-24.1-26.4v-13.5H212v13.5c-13.5,1.2-24.1,12.6-24.1,26.4c0,8.7,4.3,16.9,11.5,21.8c0,0,0,0,0,0       c4.5,3.1,9.7,4.7,15.1,4.7c5.4,0,10.6-1.6,15.1-4.7c7.2-5,11.5-13.1,11.5-21.9C240.9,194.9,230.3,183.5,216.8,182.3z        M111.3,108.2c0-21.3,17.4-38.7,38.7-38.7s38.7,17.4,38.7,38.7c0,11.1-4.8,21.6-13,28.9v-5.2c0-0.9-0.1-1.8-0.2-2.6       c0-0.2-0.1-0.5-0.1-0.7c-0.1-0.6-0.2-1.1-0.3-1.7c-0.1-0.2-0.1-0.5-0.2-0.7c-0.2-0.6-0.4-1.2-0.6-1.8c0-0.1,0-0.1-0.1-0.2       c-0.3-0.6-0.6-1.2-0.9-1.8c-0.1-0.2-0.2-0.3-0.3-0.5c-0.3-0.4-0.6-0.8-0.9-1.1c-0.1-0.2-0.3-0.3-0.4-0.4       c-0.4-0.4-0.7-0.8-1.1-1.1c-0.1-0.1-0.1-0.1-0.2-0.2c-0.5-0.4-1-0.8-1.5-1.1c-0.1-0.1-0.3-0.2-0.4-0.3       c-0.4-0.3-0.8-0.5-1.2-0.7c-0.2-0.1-0.3-0.2-0.5-0.3c-0.5-0.2-0.9-0.4-1.4-0.6c-0.1,0-0.2-0.1-0.4-0.1       c-0.6-0.2-1.2-0.4-1.9-0.6c-0.1,0-0.3-0.1-0.4-0.1c-0.5-0.1-1-0.3-1.5-0.4c-0.2,0-0.4-0.1-0.6-0.1c-0.5-0.1-1-0.2-1.5-0.3       c-0.2,0-0.3-0.1-0.5-0.1c-0.1,0-0.1,0-0.2,0c0,0,0.1-0.1,0.1-0.1c0.5-0.3,0.9-0.7,1.4-1c0.1-0.1,0.2-0.1,0.2-0.2       c0.4-0.3,0.7-0.6,1-1c0.1-0.1,0.3-0.3,0.4-0.4c0.3-0.3,0.5-0.6,0.8-0.9c0.1-0.2,0.2-0.3,0.3-0.5c0.3-0.4,0.5-0.8,0.7-1.2       c0.1-0.1,0.1-0.2,0.2-0.3c0.3-0.5,0.5-1,0.7-1.6c0.1-0.1,0.1-0.3,0.2-0.4c0.2-0.4,0.3-0.8,0.4-1.2c0.1-0.2,0.1-0.4,0.1-0.6       c0.1-0.4,0.2-0.8,0.2-1.2c0-0.2,0.1-0.4,0.1-0.5c0.1-0.6,0.1-1.2,0.1-1.8c0-8.5-6.9-15.4-15.4-15.4s-15.4,6.9-15.4,15.4       c0,0.6,0,1.2,0.1,1.8c0,0.2,0.1,0.4,0.1,0.5c0.1,0.4,0.1,0.8,0.2,1.2c0,0.2,0.1,0.4,0.1,0.6c0.1,0.4,0.3,0.8,0.4,1.2       c0.1,0.1,0.1,0.3,0.2,0.4c0.2,0.5,0.5,1.1,0.7,1.6c0.1,0.1,0.1,0.2,0.2,0.3c0.2,0.4,0.5,0.8,0.7,1.2c0.1,0.2,0.2,0.3,0.3,0.5       c0.2,0.3,0.5,0.6,0.8,0.9c0.1,0.1,0.2,0.3,0.4,0.4c0.3,0.3,0.7,0.7,1,1c0.1,0.1,0.2,0.1,0.2,0.2c0.4,0.4,0.9,0.7,1.4,1       c0,0,0.1,0.1,0.1,0.1c-0.1,0-0.1,0-0.2,0c-0.2,0-0.3,0.1-0.5,0.1c-0.5,0.1-1,0.2-1.5,0.3c-0.2,0-0.4,0.1-0.6,0.1       c-0.5,0.1-1,0.2-1.5,0.4c-0.1,0-0.3,0.1-0.4,0.1c-0.6,0.2-1.3,0.4-1.9,0.6c-0.1,0-0.2,0.1-0.4,0.1c-0.5,0.2-1,0.4-1.4,0.6       c-0.2,0.1-0.4,0.2-0.5,0.3c-0.4,0.2-0.8,0.5-1.2,0.7c-0.1,0.1-0.3,0.2-0.4,0.3c-0.5,0.3-1,0.7-1.5,1.1       c-0.1,0.1-0.1,0.1-0.2,0.2c-0.4,0.3-0.8,0.7-1.1,1.1c-0.1,0.1-0.3,0.3-0.4,0.4c-0.3,0.4-0.6,0.7-0.9,1.1       c-0.1,0.2-0.2,0.3-0.3,0.5c-0.3,0.6-0.7,1.1-0.9,1.8c0,0.1,0,0.1-0.1,0.2c-0.2,0.6-0.4,1.2-0.6,1.8c-0.1,0.2-0.1,0.4-0.2,0.7       c-0.1,0.5-0.2,1.1-0.3,1.7c0,0.2-0.1,0.5-0.1,0.7c-0.1,0.8-0.2,1.7-0.2,2.6v5.2C116.1,129.8,111.3,119.4,111.3,108.2z        M147.9,91.1c0.7-0.1,1.4-0.2,2.1-0.2s1.4,0.1,2.1,0.2c4.8,1,8.5,5.3,8.5,10.4c0,5.8-4.8,10.6-10.6,10.6       c-5.8,0-10.6-4.8-10.6-10.6C139.4,96.3,143,92,147.9,91.1z M136.8,128.8c-1.3,0-2.4,1.1-2.4,2.4v12.4c-1.8-0.8-3.6-1.8-5.3-2.9       v-8.9c0-9.4,6.1-13.3,20.9-13.3c14.8,0,20.9,3.8,20.9,13.3v8.9c-1.7,1.1-3.5,2.1-5.4,2.9v-12.5c0-1.3-1.1-2.4-2.4-2.4       c-1.3,0-2.4,1.1-2.4,2.4v14.2c-7,2-14.5,2-21.5,0v-14.2C139.2,129.9,138.1,128.8,136.8,128.8z M74.3,227.3v-4.7       c0-4.1,1.9-6.8,11.3-6.8s11.3,2.7,11.3,6.8v4.7c-3.4,2.1-7.3,3.2-11.3,3.2S77.7,229.4,74.3,227.3z M85.6,209.9       c-2.9,0-5.2-2.3-5.2-5.2c0-2.9,2.3-5.2,5.2-5.2c2.9,0,5.2,2.3,5.2,5.2C90.9,207.6,88.5,209.9,85.6,209.9z M107.4,208.7       c0,5.5-2.1,10.6-5.6,14.6v-0.7c0-0.7-0.1-1.3-0.1-1.8c0-0.1,0-0.2,0-0.3c-0.1-0.5-0.2-1.1-0.3-1.6c0-0.1-0.1-0.2-0.1-0.3       c-0.1-0.5-0.3-0.9-0.5-1.3c0,0,0-0.1,0-0.1c-0.2-0.4-0.5-0.8-0.7-1.2c-0.1-0.1-0.1-0.1-0.2-0.2c-0.3-0.4-0.5-0.7-0.9-1       c0,0-0.1-0.1-0.1-0.1c-0.3-0.3-0.6-0.5-0.9-0.8c0,0-0.1-0.1-0.1-0.1c-0.3-0.2-0.7-0.5-1.1-0.7c-0.1,0-0.2-0.1-0.2-0.1       c-0.4-0.2-0.7-0.4-1.1-0.5c0,0-0.1,0-0.1-0.1c-0.4-0.1-0.7-0.3-1.1-0.4c-0.1,0-0.1,0-0.2-0.1c-0.3-0.1-0.6-0.2-0.9-0.3       c0.1-0.1,0.2-0.2,0.3-0.3c0.1-0.1,0.2-0.2,0.3-0.3c0.1-0.1,0.2-0.3,0.3-0.4c0.1-0.1,0.2-0.2,0.3-0.4c0.1-0.1,0.2-0.3,0.3-0.4       c0.1-0.1,0.2-0.2,0.2-0.4c0.1-0.2,0.2-0.3,0.2-0.5c0.1-0.1,0.1-0.3,0.2-0.4c0.1-0.2,0.1-0.4,0.2-0.5c0-0.1,0.1-0.3,0.1-0.4       c0.1-0.2,0.1-0.4,0.2-0.6c0-0.1,0.1-0.2,0.1-0.4c0-0.2,0.1-0.5,0.1-0.7c0-0.1,0-0.2,0-0.3c0-0.3,0.1-0.7,0.1-1       c0-5.5-4.5-10-10-10s-10,4.5-10,10c0,0.3,0,0.7,0.1,1c0,0.1,0,0.2,0,0.3c0,0.2,0.1,0.5,0.1,0.7c0,0.1,0.1,0.2,0.1,0.4       c0,0.2,0.1,0.4,0.2,0.6c0,0.1,0.1,0.3,0.1,0.4c0.1,0.2,0.1,0.4,0.2,0.5c0.1,0.1,0.1,0.3,0.2,0.4c0.1,0.2,0.1,0.3,0.2,0.5       c0.1,0.1,0.2,0.3,0.2,0.4c0.1,0.1,0.2,0.3,0.3,0.4c0.1,0.1,0.2,0.2,0.3,0.4c0.1,0.1,0.2,0.3,0.3,0.4c0.1,0.1,0.2,0.2,0.3,0.3       c0.1,0.1,0.2,0.2,0.3,0.3c-0.3,0.1-0.6,0.2-0.9,0.3c-0.1,0-0.1,0-0.2,0.1c-0.4,0.1-0.8,0.3-1.1,0.4c0,0-0.1,0-0.1,0.1       c-0.4,0.2-0.8,0.3-1.1,0.5c-0.1,0-0.2,0.1-0.2,0.1c-0.4,0.2-0.7,0.4-1.1,0.7c0,0-0.1,0.1-0.1,0.1c-0.3,0.2-0.6,0.5-0.9,0.8       c0,0-0.1,0.1-0.1,0.1c-0.3,0.3-0.6,0.6-0.9,1c-0.1,0.1-0.1,0.1-0.2,0.2c-0.3,0.4-0.5,0.8-0.7,1.2c0,0,0,0.1,0,0.1       c-0.2,0.4-0.4,0.8-0.5,1.3c0,0.1-0.1,0.2-0.1,0.3c-0.1,0.5-0.3,1-0.3,1.6c0,0.1,0,0.2,0,0.3c-0.1,0.6-0.1,1.2-0.1,1.8v0.7       c-3.6-4-5.6-9.2-5.6-14.6c0-12,9.8-21.7,21.7-21.7S107.4,196.7,107.4,208.7z M138.7,227.3v-4.7c0-4.1,1.9-6.8,11.3-6.8       c9.4,0,11.3,2.7,11.3,6.8v4.7c-3.4,2.1-7.3,3.2-11.3,3.2C146,230.4,142.1,229.4,138.7,227.3z M150,209.9       c-2.9,0-5.2-2.3-5.2-5.2c0-2.9,2.3-5.2,5.2-5.2c2.9,0,5.2,2.3,5.2,5.2C155.2,207.6,152.9,209.9,150,209.9z M171.7,208.7       c0,5.5-2.1,10.6-5.6,14.6v-0.7c0-0.7-0.1-1.3-0.1-1.8c0-0.1,0-0.2,0-0.3c-0.1-0.5-0.2-1.1-0.3-1.6c0-0.1-0.1-0.2-0.1-0.3       c-0.1-0.5-0.3-0.9-0.5-1.3c0,0,0-0.1,0-0.1c-0.2-0.4-0.5-0.8-0.7-1.2c-0.1-0.1-0.1-0.1-0.2-0.2c-0.3-0.4-0.5-0.7-0.9-1       c0,0-0.1-0.1-0.1-0.1c-0.3-0.3-0.6-0.5-0.9-0.8c0,0-0.1-0.1-0.1-0.1c-0.3-0.2-0.7-0.5-1.1-0.7c-0.1,0-0.2-0.1-0.2-0.1       c-0.4-0.2-0.7-0.4-1.1-0.5c0,0-0.1,0-0.1-0.1c-0.4-0.1-0.7-0.3-1.1-0.4c-0.1,0-0.1,0-0.2-0.1c-0.3-0.1-0.6-0.2-0.9-0.3       c0.1-0.1,0.2-0.2,0.3-0.3c0.1-0.1,0.2-0.2,0.3-0.3c0.1-0.1,0.2-0.3,0.3-0.4c0.1-0.1,0.2-0.2,0.3-0.4c0.1-0.1,0.2-0.3,0.3-0.4       c0.1-0.1,0.2-0.2,0.2-0.4c0.1-0.2,0.2-0.3,0.2-0.5c0.1-0.1,0.1-0.3,0.2-0.4c0.1-0.2,0.1-0.4,0.2-0.5c0-0.1,0.1-0.3,0.1-0.4       c0.1-0.2,0.1-0.4,0.2-0.6c0-0.1,0.1-0.2,0.1-0.4c0-0.2,0.1-0.5,0.1-0.7c0-0.1,0-0.2,0-0.3c0-0.3,0.1-0.7,0.1-1       c0-5.5-4.5-10-10-10s-10,4.5-10,10c0,0.3,0,0.7,0.1,1c0,0.1,0,0.2,0,0.3c0,0.2,0.1,0.5,0.1,0.7c0,0.1,0.1,0.2,0.1,0.4       c0,0.2,0.1,0.4,0.2,0.6c0,0.1,0.1,0.3,0.1,0.4c0.1,0.2,0.1,0.4,0.2,0.5c0.1,0.1,0.1,0.3,0.2,0.4c0.1,0.2,0.1,0.3,0.2,0.5       c0.1,0.1,0.2,0.3,0.2,0.4c0.1,0.1,0.2,0.3,0.3,0.4c0.1,0.1,0.2,0.2,0.3,0.4c0.1,0.1,0.2,0.3,0.3,0.4c0.1,0.1,0.2,0.2,0.3,0.3       c0.1,0.1,0.2,0.2,0.3,0.3c-0.3,0.1-0.6,0.2-0.9,0.3c-0.1,0-0.1,0-0.2,0.1c-0.4,0.1-0.8,0.3-1.1,0.4c0,0-0.1,0-0.1,0.1       c-0.4,0.2-0.8,0.3-1.1,0.5c-0.1,0-0.2,0.1-0.2,0.1c-0.4,0.2-0.7,0.4-1.1,0.7c0,0-0.1,0.1-0.1,0.1c-0.3,0.2-0.6,0.5-0.9,0.8       c0,0-0.1,0.1-0.1,0.1c-0.3,0.3-0.6,0.6-0.9,1c-0.1,0.1-0.1,0.1-0.2,0.2c-0.3,0.4-0.5,0.8-0.7,1.2c0,0,0,0.1,0,0.1       c-0.2,0.4-0.4,0.8-0.5,1.3c0,0.1-0.1,0.2-0.1,0.3c-0.1,0.5-0.3,1-0.3,1.6c0,0.1,0,0.2,0,0.3c-0.1,0.6-0.1,1.2-0.1,1.8v0.7       c-3.6-4-5.6-9.2-5.6-14.6c0-12,9.8-21.7,21.7-21.7C162,187,171.7,196.7,171.7,208.7z M203.1,227.3v-4.7c0-4.1,1.9-6.8,11.3-6.8       c9.4,0,11.3,2.7,11.3,6.8v4.7c-3.4,2.1-7.3,3.2-11.3,3.2C210.4,230.4,206.5,229.4,203.1,227.3z M214.4,209.9       c-2.9,0-5.2-2.3-5.2-5.2c0-2.9,2.3-5.2,5.2-5.2s5.2,2.3,5.2,5.2C219.6,207.6,217.3,209.9,214.4,209.9z M230.5,223.3v-0.7       c0-0.7-0.1-1.3-0.1-1.8c0-0.1,0-0.2,0-0.3c-0.1-0.5-0.2-1.1-0.3-1.5c0-0.1-0.1-0.2-0.1-0.3c-0.1-0.5-0.3-0.9-0.5-1.3       c0,0,0-0.1,0-0.1c-0.2-0.4-0.5-0.8-0.7-1.2c-0.1-0.1-0.1-0.2-0.2-0.2c-0.3-0.3-0.5-0.7-0.8-1c0,0-0.1-0.1-0.2-0.1       c-0.3-0.3-0.6-0.5-0.9-0.8c0,0-0.1-0.1-0.1-0.1c-0.3-0.2-0.7-0.5-1.1-0.7c-0.1,0-0.2-0.1-0.2-0.1c-0.4-0.2-0.7-0.4-1.1-0.5       c0,0-0.1,0-0.1-0.1c-0.4-0.1-0.7-0.3-1.1-0.4c-0.1,0-0.1,0-0.2-0.1c-0.3-0.1-0.6-0.2-0.9-0.3c0.1-0.1,0.2-0.2,0.3-0.3       c0.1-0.1,0.2-0.2,0.3-0.3c0.1-0.1,0.2-0.3,0.3-0.4c0.1-0.1,0.2-0.2,0.3-0.4c0.1-0.1,0.2-0.3,0.3-0.4c0.1-0.1,0.2-0.3,0.2-0.4       c0.1-0.1,0.1-0.3,0.2-0.5c0.1-0.1,0.1-0.3,0.2-0.4c0.1-0.2,0.1-0.3,0.2-0.5c0.1-0.1,0.1-0.3,0.2-0.4c0.1-0.2,0.1-0.4,0.1-0.5       c0-0.1,0.1-0.3,0.1-0.4c0-0.2,0.1-0.4,0.1-0.6c0-0.1,0-0.2,0.1-0.4c0-0.3,0.1-0.7,0.1-1c0-5.5-4.5-10-10-10s-10,4.5-10,10       c0,0.3,0,0.7,0.1,1c0,0.1,0,0.2,0,0.3c0,0.2,0.1,0.5,0.1,0.7c0,0.1,0.1,0.2,0.1,0.4c0,0.2,0.1,0.4,0.2,0.6       c0,0.1,0.1,0.3,0.1,0.4c0.1,0.2,0.1,0.4,0.2,0.5c0.1,0.1,0.1,0.3,0.2,0.4c0.1,0.2,0.1,0.3,0.2,0.5c0.1,0.1,0.2,0.3,0.2,0.4       c0.1,0.1,0.2,0.3,0.3,0.4c0.1,0.1,0.2,0.2,0.3,0.4c0.1,0.1,0.2,0.3,0.3,0.4c0.1,0.1,0.2,0.2,0.3,0.3c0.1,0.1,0.2,0.2,0.3,0.3       c-0.3,0.1-0.6,0.2-0.9,0.3c-0.1,0-0.1,0-0.2,0.1c-0.4,0.1-0.8,0.3-1.1,0.4c0,0-0.1,0-0.1,0.1c-0.4,0.2-0.8,0.3-1.1,0.5       c-0.1,0-0.2,0.1-0.2,0.1c-0.4,0.2-0.7,0.4-1.1,0.7c0,0-0.1,0.1-0.1,0.1c-0.3,0.2-0.6,0.5-0.9,0.8c0,0-0.1,0.1-0.1,0.1       c-0.3,0.3-0.6,0.6-0.9,1c-0.1,0.1-0.1,0.1-0.2,0.2c-0.3,0.4-0.5,0.8-0.7,1.2c0,0,0,0.1,0,0.1c-0.2,0.4-0.4,0.8-0.5,1.3       c0,0.1-0.1,0.2-0.1,0.3c-0.1,0.5-0.3,1-0.3,1.6c0,0.1,0,0.2,0,0.3c-0.1,0.6-0.1,1.2-0.1,1.8v0.7c-3.6-4-5.6-9.2-5.6-14.6       c0-12,9.8-21.7,21.7-21.7s21.7,9.8,21.7,21.7C236.1,214.2,234.1,219.3,230.5,223.3z" id="XMLID_3_"/></g></g></g></g></svg>
