<?xml version="1.0" encoding="UTF-8" standalone="no"?>
<svg
   xmlns:dc="http://purl.org/dc/elements/1.1/"
   xmlns:cc="http://creativecommons.org/ns#"
   xmlns:rdf="http://www.w3.org/1999/02/22-rdf-syntax-ns#"
   xmlns:svg="http://www.w3.org/2000/svg"
   xmlns="http://www.w3.org/2000/svg"
   viewBox="0 0 285.66666 141.08"
   height="141.08"
   width="285.66666"
   xml:space="preserve"
   id="svg2"
   version="1.1"><metadata
     id="metadata8"><rdf:RDF><cc:Work
         rdf:about=""><dc:format>image/svg+xml</dc:format><dc:type
           rdf:resource="http://purl.org/dc/dcmitype/StillImage" /></cc:Work></rdf:RDF></metadata><defs
     id="defs6" /><g
     transform="matrix(1.3333333,0,0,-1.3333333,0,141.08)"
     id="g10"><g
       transform="scale(0.1)"
       id="g12"><path
         id="path14"
         style="fill:#fbfbfb;fill-opacity:1;fill-rule:nonzero;stroke:none"
         d="M 2095.56,552.555 H 1637 v 458.555 h 458.56 z M 1590.01,47 H 47.0039 V 505.551 H 1590.01 Z m 552.54,1011.11 H 1590.01 V 552.555 L 0,552.555 V 0 h 1637 v 505.551 h 505.55 v 552.559" /><path
         id="path16"
         style="fill:#fbfbfb;fill-opacity:1;fill-rule:nonzero;stroke:none"
         d="m 326.391,162.055 h -47.657 v 228.433 h 130.938 v -39.683 h -83.281 v -54.364 h 67.5 V 256.91 h -67.5 v -94.855" /><path
         id="path18"
         style="fill:#fbfbfb;fill-opacity:1;fill-rule:nonzero;stroke:none"
         d="M 798.793,162.055 H 750.355 V 350.18 h -62.031 v 40.308 h 172.5 V 350.18 H 798.793 V 162.055" /><path
         id="path20"
         style="fill:#fbfbfb;fill-opacity:1;fill-rule:nonzero;stroke:none"
         d="M 1077.28,162.055 H 1029 v 94.074 h -90.469 v -94.074 h -48.437 v 228.433 h 48.437 V 296.441 H 1029 v 94.047 h 48.28 V 162.055" /><path
         id="path22"
         style="fill:#fbfbfb;fill-opacity:1;fill-rule:nonzero;stroke:none"
         d="m 1210.77,162.055 -55,179.215 h -1.41 c 1.98,-36.457 2.97,-60.782 2.97,-72.965 v -106.25 h -43.28 v 228.433 h 65.94 l 54.06,-174.683 h 0.94 l 57.34,174.683 h 65.94 V 162.055 h -45.16 V 270.18 c 0,5.101 0.08,10.984 0.24,17.656 0.16,6.664 0.86,24.375 2.11,53.125 h -1.41 l -58.9,-178.906 h -44.38" /><path
         id="path24"
         style="fill:#fbfbfb;fill-opacity:1;fill-rule:nonzero;stroke:none"
         d="m 515.426,351.859 h 15.086 v -55.875 h -39.317 z m -41.324,-95.296 h 56.41 v -94.508 h 131.566 v 40 h -83.129 v 54.508 h 77.668 v 39.421 h -77.668 v 54.825 h 83.129 v 39.687 H 480.957 L 380.656,162.055 h 52.457 l 40.989,94.508" /></g></g></svg>
