<?xml version="1.0" encoding="UTF-8"?>
<svg width="160px" height="89px" viewBox="0 0 160 89" version="1.1" xmlns="http://www.w3.org/2000/svg" xmlns:xlink="http://www.w3.org/1999/xlink">
    <!-- Generator: Sketch 46.2 (44496) - http://www.bohemiancoding.com/sketch -->
    <title>job Neighbourhood Icon</title>
    <desc>Created with Sketch.</desc>
    <defs></defs>
    <g id="Page-1" stroke="none" stroke-width="1" fill="none" fill-rule="evenodd">
        <g id="job-Neighbourhood-Icon" transform="translate(1.000000, 0.000000)" stroke="#7b8797" fill-rule="nonzero" stroke-width="1.5" fill="#7b8797">
            <path d="M144.9,1.4 C138,1.4 132.3,7.1 132.3,14 C132.3,17.6 133.8,20.8 136.2,23.1 L106.3,63.4 C104.6,62.6 102.7,62.1 100.7,62.1 C96.6,62.1 92.9,64.1 90.6,67.1 L88.7,71.2 C88.4,72.3 88.2,73.5 88.2,74.7 C88.2,81.6 93.9,87.3 100.8,87.3 C107.7,87.3 113.4,81.6 113.4,74.7 C113.4,71.4 112.1,68.4 110,66.1 L140,25.6 C141.5,26.2 143.2,26.6 144.9,26.6 C151.8,26.6 157.5,20.9 157.5,14 C157.5,7.1 151.8,1.4 144.9,1.4 Z M100.8,82.9 C96.3,82.9 92.7,79.3 92.7,74.8 C92.7,74.3 92.8,73.8 92.8,73.4 C93.1,71.8 93.8,70.4 94.9,69.3 C96.4,67.7 98.5,66.7 100.8,66.7 C101.8,66.7 102.7,66.9 103.6,67.2 C105,67.7 106.3,68.7 107.2,69.9 C108.2,71.3 108.9,72.9 108.9,74.8 C108.9,79.3 105.3,82.9 100.8,82.9 Z M144.9,22.2 C144.2,22.2 143.5,22.1 142.8,21.9 C141.3,21.5 140,20.7 138.9,19.6 C137.6,18.2 136.8,16.3 136.8,14.2 C136.8,9.6 140.4,6 144.9,6 C149.4,6 153,9.6 153,14.1 C153,18.6 149.4,22.2 144.9,22.2 Z" id="Shape"></path>
            <path d="M57.3,0.8 C50.4,0.8 44.7,6.5 44.7,13.4 C44.7,17 46.2,20.2 48.6,22.5 L18.7,62.8 C17,62 15.1,61.5 13.1,61.5 C9,61.5 5.3,63.5 3,66.5 L1.1,70.6 C0.8,71.7 0.6,72.9 0.6,74.1 C0.6,81 6.3,86.7 13.2,86.7 C20.1,86.7 25.8,81 25.8,74.1 C25.8,70.8 24.5,67.8 22.4,65.5 L52.4,25 C53.9,25.6 55.6,26 57.3,26 C64.2,26 69.9,20.3 69.9,13.4 C69.9,6.5 64.2,0.8 57.3,0.8 Z M13.2,82.3 C8.7,82.3 5.1,78.7 5.1,74.2 C5.1,73.7 5.2,73.2 5.2,72.8 C5.5,71.2 6.2,69.8 7.3,68.7 C8.8,67.1 10.9,66.1 13.2,66.1 C14.2,66.1 15.1,66.3 16,66.6 C17.4,67.1 18.7,68.1 19.6,69.3 C20.6,70.7 21.3,72.3 21.3,74.2 C21.3,78.7 17.7,82.3 13.2,82.3 Z M57.3,21.6 C56.6,21.6 55.9,21.5 55.2,21.3 C53.7,20.9 52.4,20.1 51.3,19 C50,17.6 49.2,15.7 49.2,13.6 C49.2,9 52.8,5.4 57.3,5.4 C61.8,5.4 65.4,9 65.4,13.5 C65.4,18 61.8,21.6 57.3,21.6 Z" id="Shape"></path>
            <polygon id="Shape" points="64.2 21.1 62.7 22.5 62.7 24.9 91.4 66.3 94.4 67 95 63.5 66.5 22.2"></polygon>
        </g>
    </g>
</svg>
