<?xml version="1.0" encoding="UTF-8"?>
<svg width="140px" height="31px" viewBox="0 0 140 31" version="1.1" xmlns="http://www.w3.org/2000/svg" xmlns:xlink="http://www.w3.org/1999/xlink">
    <!-- Generator: Sketch 46.1 (44463) - http://www.bohemiancoding.com/sketch -->
    <title>Combined Shape</title>
    <desc>Created with Sketch.</desc>
    <defs></defs>
    <g id="Page-1" stroke="none" stroke-width="1" fill="none" fill-rule="evenodd">
        <g id="Desktop-HD" transform="translate(-828.000000, -812.000000)" fill-rule="nonzero" fill="#FFFFFF">
            <g id="Tandem_Logo" transform="translate(728.000000, 795.000000)">
                <path d="M113.559,24.357 L113.559,47.35 L107.655,47.35 L107.655,24.357 L100.047,24.357 L100.047,19.617 L121.128,19.617 L121.128,24.357 L113.559,24.357 Z M131.103,47.35 L131.103,45.895 C130.729,46.144 128.567,47.808 125.324,47.808 C121.249,47.808 118.713,45.105 118.713,41.238 C118.713,33.962 127.611,33.837 130.106,33.837 L130.688,33.837 C130.688,32.59 130.646,32.007 130.064,31.425 C129.607,30.967 128.692,30.593 127.153,30.593 C124.451,30.593 121.998,31.924 121.707,32.09 L119.836,28.514 C120.127,28.265 122.913,26.311 127.611,26.311 C129.357,26.311 132.309,26.602 134.305,28.598 C136.01,30.302 135.968,32.424 135.968,35.085 L135.968,47.35 L131.103,47.35 Z M130.688,37.663 C130.313,37.663 129.814,37.663 129.814,37.663 C126.197,37.663 123.619,38.286 123.619,40.864 C123.619,42.985 125.407,43.567 126.779,43.567 C129.066,43.567 130.438,42.444 130.688,42.319 L130.688,37.663 Z M153.221,47.35 L153.221,36.582 C153.221,33.921 153.096,32.59 152.348,31.841 C152.098,31.591 151.474,31.092 150.144,31.092 C148.356,31.092 146.693,32.132 146.36,32.382 L146.36,47.35 L140.747,47.35 L140.747,26.893 L145.529,26.893 L145.529,28.431 C145.861,28.182 148.398,26.311 151.308,26.311 C153.47,26.311 155.3,26.976 156.631,28.306 C158.959,30.635 158.835,33.671 158.835,36.332 L158.835,47.35 L153.221,47.35 Z M177.417,47.35 L177.417,46.103 C177.209,46.269 175.338,47.891 171.928,47.891 C166.356,47.891 162.739,43.567 162.739,37.413 C162.739,30.76 167.396,26.311 172.593,26.311 C174.881,26.311 176.461,27.018 176.71,27.101 L176.71,17.247 L182.323,17.247 L182.323,47.35 L177.417,47.35 Z M176.71,31.757 C176.544,31.674 175.214,30.926 173.591,30.926 C170.639,30.926 168.394,33.047 168.394,37.247 C168.394,41.197 170.639,43.317 173.258,43.317 C175.047,43.317 176.586,42.361 176.71,42.236 L176.71,31.757 Z M205.438,38.951 L191.966,38.951 C191.883,40.448 193.131,43.567 197.206,43.567 C199.784,43.567 201.779,42.527 202.652,42.111 L204.482,45.687 C204.357,45.812 201.239,47.932 196.707,47.932 C190.053,47.932 186.519,43.192 186.519,37.247 C186.519,30.967 190.511,26.311 196.333,26.311 C202.32,26.311 205.521,30.552 205.521,37.205 C205.521,38.078 205.438,38.66 205.438,38.951 Z M196.457,30.469 C193.921,30.469 192.34,32.382 191.924,34.918 L200.324,34.918 C200.324,33.796 199.908,30.469 196.457,30.469 Z M233.71,47.35 L233.71,36.166 C233.71,33.713 233.793,31.092 230.84,31.092 C229.094,31.092 227.472,32.299 227.098,32.548 C227.306,33.38 227.347,33.629 227.347,37.08 L227.347,47.35 L221.734,47.35 L221.734,36.166 C221.734,33.713 221.817,31.092 218.865,31.092 C217.202,31.092 215.664,32.049 215.331,32.257 L215.331,47.35 L209.717,47.35 L209.717,26.893 L214.5,26.893 L214.5,28.431 C214.874,28.14 217.119,26.311 220.238,26.311 C223.439,26.311 224.853,28.099 225.268,28.556 C225.643,28.265 228.221,26.311 231.797,26.311 C233.544,26.311 235.622,26.81 236.995,28.182 C239.448,30.635 239.323,34.045 239.323,38.744 L239.323,47.35 L233.71,47.35 Z" id="Combined-Shape"></path>
            </g>
        </g>
    </g>
</svg>
